<svg width="27" height="28" viewBox="0 0 27 28" fill="none" xmlns="http://www.w3.org/2000/svg">
<path d="M21.9227 21.0089C21.9121 21.385 21.8261 21.7551 21.6697 22.0973C21.5133 22.4396 21.2898 22.7469 21.0124 23.001C20.7349 23.2552 20.4093 23.451 20.0547 23.5769C19.7001 23.7027 19.3239 23.7561 18.9483 23.7337C16.6016 23.7468 14.2539 23.7337 11.9073 23.7337C11.7627 23.7337 11.6241 23.6763 11.5219 23.5741C11.4197 23.4719 11.3623 23.3333 11.3623 23.1888C11.3623 23.0442 11.4197 22.9056 11.5219 22.8034C11.6241 22.7012 11.7627 22.6438 11.9073 22.6438C14.3051 22.6438 16.703 22.6787 19.1009 22.6438C20.3074 22.6264 20.8328 21.7195 20.8328 20.6405V7.05549C20.841 6.71247 20.7443 6.37512 20.5556 6.08858C20.3668 5.80205 20.0951 5.58001 19.7766 5.45219C19.4004 5.34896 19.0088 5.3139 18.6202 5.34864H11.9073C11.7627 5.34864 11.6241 5.29123 11.5219 5.18903C11.4197 5.08682 11.3623 4.94821 11.3623 4.80367C11.3623 4.65914 11.4197 4.52052 11.5219 4.41832C11.6241 4.31612 11.7627 4.2587 11.9073 4.2587C14.3324 4.2587 16.7739 4.16606 19.1968 4.2587C19.5677 4.26794 19.9331 4.35089 20.2716 4.50271C20.6102 4.65454 20.9151 4.87222 21.1687 5.14306C21.4223 5.4139 21.6195 5.7325 21.7488 6.08029C21.878 6.42808 21.9368 6.79812 21.9216 7.16884L21.9227 21.0089Z" fill="#F4F4F4"/>
<path d="M16.3157 14.3823C16.4076 14.2924 16.4614 14.1707 16.4661 14.0422L16.4727 13.9964L16.4661 13.9517C16.4617 13.8229 16.4078 13.7007 16.3157 13.6106L12.3167 9.6127C12.2139 9.51343 12.0763 9.4585 11.9334 9.45974C11.7905 9.46098 11.6538 9.51829 11.5528 9.61933C11.4517 9.72038 11.3944 9.85706 11.3932 9.99995C11.3919 10.1428 11.4469 10.2805 11.5461 10.3833L14.6154 13.4515H2.90727C2.76274 13.4515 2.62412 13.5089 2.52192 13.6111C2.41972 13.7133 2.3623 13.8519 2.3623 13.9964C2.3623 14.141 2.41972 14.2796 2.52192 14.3818C2.62412 14.484 2.76274 14.5414 2.90727 14.5414H14.6154L11.5461 17.6096C11.4469 17.7124 11.3919 17.85 11.3932 17.9929C11.3944 18.1358 11.4517 18.2725 11.5528 18.3735C11.6538 18.4746 11.7905 18.5319 11.9334 18.5331C12.0763 18.5344 12.2139 18.4794 12.3167 18.3802L16.3157 14.3823Z" fill="#F4F4F4"/>
</svg>
