<svg width="30" height="29" viewBox="0 0 30 29" fill="none" xmlns="http://www.w3.org/2000/svg">
<path d="M13.0748 18.1483C13.5962 18.6711 14.2533 18.9171 15.0458 18.8861C15.8384 18.8552 16.412 18.5674 16.7666 18.0228L23.7748 7.48244L13.2625 14.5094C12.7202 14.8858 12.4232 15.4555 12.3715 16.2184C12.3198 16.9813 12.5542 17.6246 13.0748 18.1483ZM6.37951 23.7949C5.92065 23.7949 5.49849 23.6954 5.11304 23.4963C4.72759 23.2972 4.41973 22.9994 4.18947 22.6029C3.64717 21.6199 3.23002 20.6006 2.93801 19.5449C2.646 18.4892 2.5 17.3963 2.5 16.2661C2.5 14.5303 2.82872 12.899 3.48615 11.3723C4.14358 9.84566 5.03503 8.51766 6.16051 7.38833C7.28599 6.259 8.61044 5.36516 10.1339 4.70681C11.6573 4.04845 13.2842 3.71885 15.0146 3.71802C16.7249 3.71802 18.3309 4.04218 19.8327 4.69049C21.3344 5.33881 22.6484 6.22261 23.7748 7.3419C24.9011 8.46119 25.7979 9.76828 26.4654 11.2632C27.1328 12.7581 27.477 14.363 27.4978 16.0779C27.5187 17.2281 27.3885 18.3524 27.1074 19.4508C26.8262 20.5492 26.3932 21.5999 25.8084 22.6029C25.5789 23.0002 25.2715 23.2985 24.886 23.4975C24.5006 23.6966 24.0776 23.7958 23.6171 23.7949H6.37951Z" fill="url(#paint0_linear_1_566)"/>
<defs>
<linearGradient id="paint0_linear_1_566" x1="10.614" y1="7.67877" x2="32.2196" y2="8.94179" gradientUnits="userSpaceOnUse">
<stop stop-color="#F4F4F4"/>
<stop offset="1" stop-color="#6F6E6E"/>
</linearGradient>
</defs>
</svg>
