<svg width="35" height="35" viewBox="0 0 35 35" fill="none" xmlns="http://www.w3.org/2000/svg">
<path d="M9.65354 30.625C9.00507 30.625 8.45042 30.3941 7.98958 29.9323C7.52875 29.4705 7.29785 28.9168 7.29688 28.2712V15.4817C7.29688 14.8342 7.52778 14.28 7.98958 13.8192C8.45139 13.3583 9.00556 13.1269 9.65208 13.125H11.6719V10.2083C11.6719 8.58375 12.2382 7.20563 13.3708 6.07396C14.5025 4.94132 15.8806 4.375 17.5052 4.375C19.1298 4.375 20.5084 4.94132 21.641 6.07396C22.7737 7.2066 23.3395 8.58472 23.3385 10.2083V13.125H25.3583C26.0058 13.125 26.56 13.3559 27.0208 13.8177C27.4817 14.2795 27.7126 14.8337 27.7135 15.4802V28.2698C27.7135 28.9173 27.4826 29.4715 27.0208 29.9323C26.559 30.3931 26.0049 30.624 25.3583 30.625H9.65354ZM17.5052 24.0625C18.1206 24.0625 18.6388 23.8515 19.0598 23.4296C19.4817 23.0086 19.6927 22.4904 19.6927 21.875C19.6927 21.2596 19.4817 20.7414 19.0598 20.3204C18.6378 19.8994 18.1197 19.6885 17.5052 19.6875C16.8908 19.6865 16.3726 19.8975 15.9506 20.3204C15.5287 20.7414 15.3177 21.2596 15.3177 21.875C15.3177 22.4904 15.5287 23.0086 15.9506 23.4296C16.3716 23.8515 16.8898 24.0625 17.5052 24.0625ZM13.1302 13.125H21.8802V10.2083C21.8802 8.99306 21.4549 7.96007 20.6042 7.10938C19.7535 6.25868 18.7205 5.83333 17.5052 5.83333C16.2899 5.83333 15.2569 6.25868 14.4062 7.10938C13.5556 7.96007 13.1302 8.99306 13.1302 10.2083V13.125Z" fill="url(#paint0_linear_1_547)"/>
<defs>
<linearGradient id="paint0_linear_1_547" x1="13.9233" y1="9.55357" x2="31.6046" y2="10.1992" gradientUnits="userSpaceOnUse">
<stop stop-color="#F4F4F4"/>
<stop offset="1" stop-color="#6F6E6E"/>
</linearGradient>
</defs>
</svg>
