<svg width="30" height="27" viewBox="0 0 30 27" fill="none" xmlns="http://www.w3.org/2000/svg">
<g clip-path="url(#clip0_1_557)">
<path d="M10.8333 0C9.27604 0 7.98437 1.06771 7.61458 2.51042C7.57292 2.51042 7.54167 2.5 7.5 2.5C5.66146 2.5 4.16667 3.99479 4.16667 5.83333C4.16667 6.08333 4.19792 6.32812 4.25521 6.5625C2.73437 7.1875 1.66667 8.67708 1.66667 10.4167C1.66667 11.0729 1.83333 11.6823 2.09896 12.2344C0.848958 12.9531 0 14.2865 0 15.8333C0 17.5677 1.0625 19.0573 2.57292 19.6823C2.52604 19.9219 2.5 20.1667 2.5 20.4167C2.5 22.4896 4.17708 24.1667 6.25 24.1667C6.46354 24.1667 6.67188 24.1406 6.875 24.1042C7.375 25.5885 8.76042 26.6667 10.4167 26.6667C12.4896 26.6667 14.1667 24.9896 14.1667 22.9167V3.33333C14.1667 1.49479 12.6719 0 10.8333 0ZM30 15.8333C30 14.2865 29.151 12.9531 27.901 12.2344C28.1719 11.6823 28.3333 11.0729 28.3333 10.4167C28.3333 8.67708 27.2656 7.1875 25.7448 6.5625C25.7969 6.32812 25.8333 6.08333 25.8333 5.83333C25.8333 3.99479 24.3385 2.5 22.5 2.5C22.4583 2.5 22.4219 2.51042 22.3854 2.51042C22.0156 1.06771 20.724 0 19.1667 0C17.3281 0 15.8333 1.48958 15.8333 3.33333V22.9167C15.8333 24.9896 17.5104 26.6667 19.5833 26.6667C21.2396 26.6667 22.625 25.5885 23.125 24.1042C23.3281 24.1406 23.5365 24.1667 23.75 24.1667C25.8229 24.1667 27.5 22.4896 27.5 20.4167C27.5 20.1667 27.474 19.9219 27.4271 19.6823C28.9375 19.0573 30 17.5677 30 15.8333Z" fill="url(#paint0_linear_1_557)"/>
</g>
<defs>
<linearGradient id="paint0_linear_1_557" x1="9.73684" y1="5.26077" x2="35.6797" y2="6.63093" gradientUnits="userSpaceOnUse">
<stop stop-color="#F4F4F4"/>
<stop offset="1" stop-color="#6F6E6E"/>
</linearGradient>
<clipPath id="clip0_1_557">
<rect width="30" height="26.6667" fill="white"/>
</clipPath>
</defs>
</svg>
