<svg width="55" height="47" viewBox="0 0 55 47" fill="none" xmlns="http://www.w3.org/2000/svg">
<path fill-rule="evenodd" clip-rule="evenodd" d="M48.5216 1.19626C49.181 0.918719 49.9028 0.822998 50.6117 0.919056C51.3207 1.01511 51.991 1.29944 52.5527 1.74244C53.1145 2.18544 53.5473 2.77092 53.806 3.43794C54.0648 4.10495 54.14 4.82913 54.0239 5.53508L47.9719 42.2443C47.3849 45.7853 43.4997 47.8159 40.2522 46.0521C37.5358 44.5765 33.5012 42.303 29.8722 39.9308C28.0576 38.7434 22.4994 34.9409 23.1825 32.2351C23.7695 29.9216 33.1089 21.228 38.4457 16.0593C40.5404 14.0286 39.5851 12.8572 37.1115 14.7251C30.9689 19.3627 21.1065 26.4153 17.8457 28.4006C14.9691 30.1511 13.4695 30.45 11.6763 30.1511C8.40486 29.6067 5.37088 28.7635 2.89461 27.7362C-0.45157 26.3486 -0.288797 21.7483 2.89194 20.4088L48.5216 1.19626Z" fill="url(#paint0_linear_1_668)"/>
<defs>
<linearGradient id="paint0_linear_1_668" x1="27.2611" y1="0.882812" x2="27.2611" y2="46.6992" gradientUnits="userSpaceOnUse">
<stop stop-color="#8876EA"/>
<stop offset="1" stop-color="#451FA6"/>
</linearGradient>
</defs>
</svg>
