<svg width="20" height="20" viewBox="0 0 20 20" fill="none" xmlns="http://www.w3.org/2000/svg">
<path fill-rule="evenodd" clip-rule="evenodd" d="M4.55827 4.55827C4.67546 4.44123 4.83431 4.37549 4.99994 4.37549C5.16556 4.37549 5.32442 4.44123 5.44161 4.55827L15.4416 14.5583C15.503 14.6155 15.5523 14.6845 15.5864 14.7612C15.6206 14.8378 15.6389 14.9206 15.6404 15.0045C15.6419 15.0884 15.6265 15.1718 15.595 15.2496C15.5636 15.3274 15.5168 15.3981 15.4575 15.4575C15.3981 15.5168 15.3274 15.5636 15.2496 15.595C15.1718 15.6265 15.0884 15.6419 15.0045 15.6404C14.9206 15.6389 14.8378 15.6206 14.7612 15.5864C14.6845 15.5523 14.6155 15.503 14.5583 15.4416L4.55827 5.44161C4.44123 5.32442 4.37549 5.16556 4.37549 4.99994C4.37549 4.83431 4.44123 4.67546 4.55827 4.55827Z" fill="#F4F4F4"/>
<path fill-rule="evenodd" clip-rule="evenodd" d="M15.4417 4.55827C15.5587 4.67546 15.6245 4.83431 15.6245 4.99994C15.6245 5.16556 15.5587 5.32442 15.4417 5.44161L5.4417 15.4416C5.32322 15.552 5.16652 15.6121 5.0046 15.6093C4.84268 15.6064 4.68819 15.5408 4.57368 15.4263C4.45917 15.3118 4.39358 15.1573 4.39072 14.9954C4.38787 14.8335 4.44797 14.6768 4.55837 14.5583L14.5584 4.55827C14.6756 4.44123 14.8344 4.37549 15 4.37549C15.1657 4.37549 15.3245 4.44123 15.4417 4.55827Z" fill="#F4F4F4"/>
</svg>
